<mxfile host="65bd71144e">
    <diagram id="265KNEwLILgpeNTstmDK" name="第 1 页">
        <mxGraphModel dx="1322" dy="610" grid="0" gridSize="10" guides="1" tooltips="0" connect="1" arrows="1" fold="1" page="1" pageScale="1" pageWidth="827" pageHeight="1169" background="#FFFFFF" math="0" shadow="0">
            <root>
                <mxCell id="0"/>
                <mxCell id="1" parent="0"/>
                <mxCell id="ASsROBfV51vxbPDfjGLC-28" style="edgeStyle=none;html=1;entryX=0.5;entryY=0;entryDx=0;entryDy=0;strokeColor=#000000;fillColor=none;shadow=0;" parent="1" source="ASsROBfV51vxbPDfjGLC-9" target="ASsROBfV51vxbPDfjGLC-26" edge="1">
                    <mxGeometry relative="1" as="geometry">
                        <mxPoint x="380" y="810" as="targetPoint"/>
                    </mxGeometry>
                </mxCell>
                <mxCell id="ASsROBfV51vxbPDfjGLC-26" value="&lt;font color=&quot;#000000&quot;&gt;Grasshopper&lt;/font&gt;" style="rounded=1;whiteSpace=wrap;html=1;strokeColor=#000000;fillColor=none;shadow=0;" parent="1" vertex="1">
                    <mxGeometry x="354" y="840" width="120" height="60" as="geometry"/>
                </mxCell>
                <mxCell id="ASsROBfV51vxbPDfjGLC-27" style="edgeStyle=none;html=1;entryX=0.5;entryY=0;entryDx=0;entryDy=0;strokeColor=#000000;fillColor=none;shadow=0;" parent="1" source="ASsROBfV51vxbPDfjGLC-10" target="ASsROBfV51vxbPDfjGLC-26" edge="1">
                    <mxGeometry relative="1" as="geometry"/>
                </mxCell>
                <mxCell id="ASsROBfV51vxbPDfjGLC-42" style="edgeStyle=none;html=1;exitX=1;exitY=0.5;exitDx=0;exitDy=0;strokeColor=#000000;fillColor=none;shadow=0;" parent="1" source="ASsROBfV51vxbPDfjGLC-31" edge="1">
                    <mxGeometry relative="1" as="geometry">
                        <mxPoint x="340" y="195" as="targetPoint"/>
                    </mxGeometry>
                </mxCell>
                <mxCell id="5" value="class Nautilus(object)" style="swimlane;strokeColor=#000000;fillColor=none;shadow=0;fontColor=#000000;" parent="1" vertex="1">
                    <mxGeometry x="20" y="10" width="516" height="810" as="geometry">
                        <mxRectangle x="20" y="10" width="160" height="23" as="alternateBounds"/>
                    </mxGeometry>
                </mxCell>
                <mxCell id="11" style="edgeStyle=orthogonalEdgeStyle;shape=connector;rounded=0;html=1;entryX=0.5;entryY=0;entryDx=0;entryDy=0;labelBackgroundColor=default;fontFamily=Helvetica;fontSize=11;fontColor=default;endArrow=open;endFill=0;strokeColor=default;" edge="1" parent="5" source="ASsROBfV51vxbPDfjGLC-6" target="7">
                    <mxGeometry relative="1" as="geometry">
                        <Array as="points">
                            <mxPoint x="608" y="298"/>
                        </Array>
                    </mxGeometry>
                </mxCell>
                <mxCell id="ASsROBfV51vxbPDfjGLC-6" value="&lt;font color=&quot;#000000&quot;&gt;def __FibonacciSharpness&lt;br&gt;OR&lt;br&gt;SeriesSharpness&lt;/font&gt;" style="whiteSpace=wrap;html=1;strokeColor=#000000;fillColor=none;shadow=0;" parent="5" vertex="1">
                    <mxGeometry x="304" y="250" width="180" height="70" as="geometry"/>
                </mxCell>
                <mxCell id="ASsROBfV51vxbPDfjGLC-29" style="edgeStyle=none;html=1;entryX=0.5;entryY=0;entryDx=0;entryDy=0;strokeColor=#000000;fillColor=none;shadow=0;" parent="5" source="ASsROBfV51vxbPDfjGLC-8" target="ASsROBfV51vxbPDfjGLC-7" edge="1">
                    <mxGeometry relative="1" as="geometry"/>
                </mxCell>
                <mxCell id="ASsROBfV51vxbPDfjGLC-8" value="&lt;font color=&quot;#000000&quot;&gt;def __init__&lt;/font&gt;" style="whiteSpace=wrap;html=1;strokeColor=#CCCCCC;fillColor=none;shadow=0;" parent="5" vertex="1">
                    <mxGeometry x="334" y="60" width="120" height="60" as="geometry"/>
                </mxCell>
                <mxCell id="9" style="edgeStyle=orthogonalEdgeStyle;shape=connector;rounded=0;html=1;labelBackgroundColor=default;fontFamily=Helvetica;fontSize=11;fontColor=default;endArrow=open;endFill=0;strokeColor=default;entryX=0.52;entryY=-0.012;entryDx=0;entryDy=0;entryPerimeter=0;" edge="1" parent="5" source="ASsROBfV51vxbPDfjGLC-7" target="6">
                    <mxGeometry relative="1" as="geometry"/>
                </mxCell>
                <mxCell id="ASsROBfV51vxbPDfjGLC-7" value="&lt;font color=&quot;#000000&quot;&gt;def __MakeSpiralPoints&lt;/font&gt;" style="whiteSpace=wrap;html=1;strokeColor=#000000;fillColor=none;shadow=0;" parent="5" vertex="1">
                    <mxGeometry x="314" y="160" width="160" height="50" as="geometry"/>
                </mxCell>
                <mxCell id="ASsROBfV51vxbPDfjGLC-10" value="&lt;font color=&quot;#000000&quot;&gt;def object&lt;/font&gt;" style="whiteSpace=wrap;html=1;strokeColor=#000000;shadow=0;fillColor=none;fontStyle=1" parent="5" vertex="1">
                    <mxGeometry x="185" y="673" width="120" height="60" as="geometry"/>
                </mxCell>
                <mxCell id="ASsROBfV51vxbPDfjGLC-24" style="edgeStyle=none;html=1;entryX=0.5;entryY=0;entryDx=0;entryDy=0;strokeColor=#000000;fillColor=none;shadow=0;" parent="5" source="ASsROBfV51vxbPDfjGLC-11" target="ASsROBfV51vxbPDfjGLC-10" edge="1">
                    <mxGeometry relative="1" as="geometry"/>
                </mxCell>
                <mxCell id="ASsROBfV51vxbPDfjGLC-25" style="edgeStyle=none;html=1;entryX=0.5;entryY=0;entryDx=0;entryDy=0;strokeColor=#000000;fillColor=none;shadow=0;" parent="5" source="ASsROBfV51vxbPDfjGLC-11" target="ASsROBfV51vxbPDfjGLC-9" edge="1">
                    <mxGeometry relative="1" as="geometry"/>
                </mxCell>
                <mxCell id="ASsROBfV51vxbPDfjGLC-11" value="&lt;font color=&quot;#000000&quot;&gt;&amp;nbsp;def __RotateCircle&lt;/font&gt;" style="whiteSpace=wrap;html=1;strokeColor=#000000;fillColor=none;shadow=0;" parent="5" vertex="1">
                    <mxGeometry x="335" y="480" width="120" height="60" as="geometry"/>
                </mxCell>
                <mxCell id="13" style="edgeStyle=orthogonalEdgeStyle;shape=connector;rounded=0;html=1;labelBackgroundColor=default;fontFamily=Helvetica;fontSize=11;fontColor=default;endArrow=open;endFill=0;strokeColor=default;" edge="1" parent="5" source="ASsROBfV51vxbPDfjGLC-13" target="8">
                    <mxGeometry relative="1" as="geometry">
                        <Array as="points">
                            <mxPoint x="608" y="413"/>
                        </Array>
                    </mxGeometry>
                </mxCell>
                <mxCell id="ASsROBfV51vxbPDfjGLC-13" value="&lt;font color=&quot;#000000&quot;&gt;&amp;nbsp;def __MakeSpiralCircles&lt;/font&gt;" style="whiteSpace=wrap;html=1;strokeColor=#000000;fillColor=none;shadow=0;" parent="5" vertex="1">
                    <mxGeometry x="305" y="370" width="180" height="60" as="geometry"/>
                </mxCell>
                <mxCell id="ASsROBfV51vxbPDfjGLC-41" style="edgeStyle=none;html=1;entryX=0;entryY=0.5;entryDx=0;entryDy=0;strokeColor=#000000;fillColor=none;shadow=0;" parent="5" source="ASsROBfV51vxbPDfjGLC-30" target="ASsROBfV51vxbPDfjGLC-7" edge="1">
                    <mxGeometry relative="1" as="geometry"/>
                </mxCell>
                <mxCell id="ASsROBfV51vxbPDfjGLC-30" value="&lt;font color=&quot;#000000&quot;&gt;NautilusSize&lt;/font&gt;" style="rounded=1;whiteSpace=wrap;html=1;shadow=0;strokeColor=#000000;fillColor=none;" parent="5" vertex="1">
                    <mxGeometry x="110" y="130" width="120" height="30" as="geometry"/>
                </mxCell>
                <mxCell id="ASsROBfV51vxbPDfjGLC-45" style="edgeStyle=none;html=1;entryX=0;entryY=0.5;entryDx=0;entryDy=0;strokeColor=#000000;fillColor=none;shadow=0;" parent="5" source="ASsROBfV51vxbPDfjGLC-32" target="ASsROBfV51vxbPDfjGLC-7" edge="1">
                    <mxGeometry relative="1" as="geometry"/>
                </mxCell>
                <mxCell id="ASsROBfV51vxbPDfjGLC-32" value="&lt;font color=&quot;#000000&quot;&gt;PiceNumber&lt;/font&gt;" style="rounded=1;whiteSpace=wrap;html=1;shadow=0;strokeColor=#000000;fillColor=none;" parent="5" vertex="1">
                    <mxGeometry x="110" y="210" width="120" height="30" as="geometry"/>
                </mxCell>
                <mxCell id="ASsROBfV51vxbPDfjGLC-31" value="&lt;font color=&quot;#000000&quot;&gt;PiceSize&lt;/font&gt;" style="rounded=1;whiteSpace=wrap;html=1;shadow=0;strokeColor=#000000;fillColor=none;" parent="5" vertex="1">
                    <mxGeometry x="110" y="170" width="120" height="30" as="geometry"/>
                </mxCell>
                <mxCell id="ASsROBfV51vxbPDfjGLC-46" style="edgeStyle=none;html=1;entryX=0;entryY=0.5;entryDx=0;entryDy=0;strokeColor=#000000;fillColor=none;shadow=0;" parent="5" source="ASsROBfV51vxbPDfjGLC-33" target="ASsROBfV51vxbPDfjGLC-6" edge="1">
                    <mxGeometry relative="1" as="geometry"/>
                </mxCell>
                <mxCell id="ASsROBfV51vxbPDfjGLC-33" value="&lt;font color=&quot;#000000&quot;&gt;Sharpness&lt;/font&gt;" style="rounded=1;whiteSpace=wrap;html=1;shadow=0;strokeColor=#000000;fillColor=none;" parent="5" vertex="1">
                    <mxGeometry x="110" y="270" width="120" height="30" as="geometry"/>
                </mxCell>
                <mxCell id="ASsROBfV51vxbPDfjGLC-47" style="edgeStyle=none;html=1;strokeColor=#000000;fillColor=none;shadow=0;" parent="5" source="ASsROBfV51vxbPDfjGLC-34" target="ASsROBfV51vxbPDfjGLC-13" edge="1">
                    <mxGeometry relative="1" as="geometry"/>
                </mxCell>
                <mxCell id="ASsROBfV51vxbPDfjGLC-34" value="&lt;font color=&quot;#000000&quot;&gt;CircleSize&lt;/font&gt;" style="rounded=1;whiteSpace=wrap;html=1;shadow=0;strokeColor=#000000;fillColor=none;" parent="5" vertex="1">
                    <mxGeometry x="110" y="385" width="120" height="30" as="geometry"/>
                </mxCell>
                <mxCell id="ASsROBfV51vxbPDfjGLC-48" style="edgeStyle=none;html=1;entryX=0;entryY=0.5;entryDx=0;entryDy=0;strokeColor=#000000;fillColor=none;shadow=0;" parent="5" source="ASsROBfV51vxbPDfjGLC-37" target="ASsROBfV51vxbPDfjGLC-11" edge="1">
                    <mxGeometry relative="1" as="geometry"/>
                </mxCell>
                <mxCell id="ASsROBfV51vxbPDfjGLC-37" value="&lt;font color=&quot;#000000&quot;&gt;CircleRotation&lt;/font&gt;" style="rounded=1;whiteSpace=wrap;html=1;shadow=0;strokeColor=#000000;fillColor=none;" parent="5" vertex="1">
                    <mxGeometry x="110" y="495" width="120" height="30" as="geometry"/>
                </mxCell>
                <mxCell id="ASsROBfV51vxbPDfjGLC-61" value="INPUTS" style="swimlane;shadow=0;fontColor=#000000;strokeColor=#999999;fillColor=none;" parent="5" vertex="1">
                    <mxGeometry x="97" y="99" width="146" height="440" as="geometry"/>
                </mxCell>
                <mxCell id="ASsROBfV51vxbPDfjGLC-94" value="OUTPUT" style="swimlane;shadow=0;fontColor=#000000;strokeColor=#999999;fillColor=none;" parent="5" vertex="1">
                    <mxGeometry x="170" y="639" width="288" height="102" as="geometry"/>
                </mxCell>
                <mxCell id="ASsROBfV51vxbPDfjGLC-9" value="&lt;font color=&quot;#000000&quot;&gt;def colours&lt;/font&gt;" style="whiteSpace=wrap;html=1;strokeColor=#000000;shadow=0;fillColor=none;fontStyle=1" parent="ASsROBfV51vxbPDfjGLC-94" vertex="1">
                    <mxGeometry x="156" y="34" width="120" height="60" as="geometry"/>
                </mxCell>
                <mxCell id="10" style="edgeStyle=orthogonalEdgeStyle;shape=connector;rounded=0;html=1;labelBackgroundColor=default;fontFamily=Helvetica;fontSize=11;fontColor=default;endArrow=open;endFill=0;strokeColor=default;exitX=0.5;exitY=1;exitDx=0;exitDy=0;" edge="1" parent="5" source="6" target="ASsROBfV51vxbPDfjGLC-6">
                    <mxGeometry relative="1" as="geometry">
                        <Array as="points">
                            <mxPoint x="608" y="271"/>
                        </Array>
                    </mxGeometry>
                </mxCell>
                <mxCell id="6" value="&lt;font color=&quot;#000000&quot;&gt;DrawSketchLines&lt;/font&gt;" style="whiteSpace=wrap;html=1;strokeColor=#000000;fillColor=none;shadow=0;" vertex="1" parent="5">
                    <mxGeometry x="528" y="206" width="160" height="50" as="geometry"/>
                </mxCell>
                <mxCell id="12" style="edgeStyle=orthogonalEdgeStyle;shape=connector;rounded=0;html=1;labelBackgroundColor=default;fontFamily=Helvetica;fontSize=11;fontColor=default;endArrow=open;endFill=0;strokeColor=default;exitX=0.5;exitY=1;exitDx=0;exitDy=0;" edge="1" parent="5" source="7" target="ASsROBfV51vxbPDfjGLC-13">
                    <mxGeometry relative="1" as="geometry">
                        <Array as="points">
                            <mxPoint x="608" y="391"/>
                        </Array>
                    </mxGeometry>
                </mxCell>
                <mxCell id="7" value="&lt;font color=&quot;#000000&quot;&gt;DrawSketchLines&lt;/font&gt;" style="whiteSpace=wrap;html=1;strokeColor=#000000;fillColor=none;shadow=0;" vertex="1" parent="5">
                    <mxGeometry x="528" y="325" width="160" height="50" as="geometry"/>
                </mxCell>
                <mxCell id="14" style="edgeStyle=orthogonalEdgeStyle;shape=connector;rounded=0;html=1;entryX=1;entryY=0.5;entryDx=0;entryDy=0;labelBackgroundColor=default;fontFamily=Helvetica;fontSize=11;fontColor=default;endArrow=open;endFill=0;strokeColor=default;exitX=0.5;exitY=1;exitDx=0;exitDy=0;" edge="1" parent="5" source="8" target="ASsROBfV51vxbPDfjGLC-11">
                    <mxGeometry relative="1" as="geometry"/>
                </mxCell>
                <mxCell id="8" value="&lt;font color=&quot;#000000&quot;&gt;DrawSketchLines&lt;/font&gt;" style="whiteSpace=wrap;html=1;strokeColor=#000000;fillColor=none;shadow=0;" vertex="1" parent="5">
                    <mxGeometry x="528" y="445" width="160" height="50" as="geometry"/>
                </mxCell>
                <mxCell id="48" value="class DrawSketch" style="swimlane;fontSize=15;" vertex="1" parent="1">
                    <mxGeometry x="542" y="145" width="186" height="410" as="geometry"/>
                </mxCell>
            </root>
        </mxGraphModel>
    </diagram>
</mxfile>